<?xml version="1.0" encoding="UTF-8"?>
<svg version="1.1" xmlns="http://www.w3.org/2000/svg" width="256" height="256">
<path d="M0 0 C0.76119141 0.21430664 1.52238281 0.42861328 2.30664062 0.64941406 C24.76274584 7.10436983 43.47769746 18.57307238 60 35 C60.72147217 35.71542969 60.72147217 35.71542969 61.45751953 36.4453125 C68.61146976 43.64014245 74.06154142 51.09495342 79 60 C79.47050781 60.83015625 79.94101563 61.6603125 80.42578125 62.515625 C88.35966811 77.3517478 91.39813031 93.17088358 91.3125 109.875 C91.30758545 111.01614258 91.3026709 112.15728516 91.29760742 113.33300781 C91.08947192 128.30595576 88.21298631 147.82078 77.875 159.375 C73.86577134 161.64108576 70.49589162 162.04877038 66 161 C62.78320342 158.43969252 61.46710842 156.95722287 60.52734375 153.01953125 C60.10428359 147.06414598 62.33320559 142.41595119 64.6875 137.05859375 C72.25194484 119.43073569 71.07862186 97.52294715 64.15429688 79.84033203 C60.31993016 70.49253674 55.81917781 62.52461 49 55 C48.34773437 54.195625 47.69546875 53.39125 47.0234375 52.5625 C33.53448431 36.39596434 14.00965157 26.54307242 -6 21 C-7.13566406 20.6803125 -8.27132812 20.360625 -9.44140625 20.03125 C-38.97943817 13.14860178 -72.76144322 17.94242827 -98.6953125 33.77734375 C-120.09225674 48.16843272 -136.83895672 67.45808979 -142.3046875 93.36328125 C-146.10565762 115.35738585 -142.19768997 137.21924914 -129.78759766 155.81689453 C-127.31610401 159.31289205 -124.67311835 162.65582911 -122 166 C-119.27977485 170.08033772 -119.48481063 173.21082058 -120 178 C-120.75338859 180.83409073 -121.85311708 183.43041567 -123.0625 186.09765625 C-123.37324463 186.8173912 -123.68398926 187.53712616 -124.00415039 188.27867126 C-124.98759642 190.54693348 -125.99323052 192.80450814 -127 195.0625 C-127.67597927 196.610674 -128.35047271 198.15949766 -129.0234375 199.70898438 C-130.66522766 203.4803769 -132.32697409 207.242366 -134 211 C-128.21444536 209.23690773 -122.69322448 207.0768196 -117.1484375 204.6796875 C-116.4408429 204.37419983 -115.73324829 204.06871216 -115.00421143 203.75396729 C-112.04441482 202.47272055 -109.08666973 201.18697543 -106.1328125 199.89208984 C-103.95371407 198.93873428 -101.77022509 197.99608097 -99.5859375 197.0546875 C-98.59972916 196.61719681 -98.59972916 196.61719681 -97.59359741 196.17086792 C-91.42560159 193.52687871 -86.16424739 192.20054838 -79.69921875 194.36328125 C-78.73113281 194.67249512 -77.76304688 194.98170898 -76.765625 195.30029297 C-75.74984375 195.63432129 -74.7340625 195.96834961 -73.6875 196.3125 C-61.90143037 199.96610998 -50.79918553 201.69717385 -38.51171875 202.1875 C-37.7846875 202.22053223 -37.05765625 202.25356445 -36.30859375 202.28759766 C-34.32506099 202.36933163 -32.34018575 202.41642805 -30.35546875 202.4609375 C-26.45205078 203.08802909 -24.78596384 204.25008375 -22 207 C-20.26100168 210.47799665 -20.41020964 214.205682 -21 218 C-23.67690514 221.56920685 -25.6651854 223.2267628 -30 224 C-46.27854523 225.09542636 -62.69901783 222.98785707 -78.16015625 217.94482422 C-79.39572266 217.5486792 -79.39572266 217.5486792 -80.65625 217.14453125 C-81.37619141 216.90065674 -82.09613281 216.65678223 -82.83789062 216.40551758 C-86.95732856 215.63289039 -90.66351741 217.1414899 -94.42871094 218.74658203 C-95.27439636 219.10430695 -96.12008179 219.46203186 -96.99139404 219.83059692 C-98.34916962 220.41331863 -98.34916962 220.41331863 -99.734375 221.0078125 C-101.16151825 221.61337479 -101.16151825 221.61337479 -102.61749268 222.23117065 C-105.66357256 223.5246735 -108.70686387 224.82458868 -111.75 226.125 C-113.75110824 226.97701792 -115.75240855 227.82858487 -117.75390625 228.6796875 C-118.73435913 229.09667908 -119.71481201 229.51367065 -120.72497559 229.94329834 C-124.57867223 231.58057267 -128.43429769 233.21328458 -132.28979492 234.84631348 C-134.87543298 235.94697402 -137.45469948 237.06146189 -140.03320312 238.17871094 C-141.54801071 238.82525974 -143.06297437 239.47144303 -144.578125 240.1171875 C-145.24914246 240.41303741 -145.92015991 240.70888733 -146.61151123 241.01370239 C-150.56171796 242.68051488 -153.71857376 243.3889713 -158 243 C-160.1171875 242.00390625 -160.1171875 242.00390625 -161.875 240.5625 C-162.76832031 239.88380859 -162.76832031 239.88380859 -163.6796875 239.19140625 C-165.81220871 235.65192578 -165.4060194 232.03457729 -165 228 C-164.1838736 224.97570059 -162.99219034 222.19008864 -161.7109375 219.3359375 C-161.37003082 218.54079742 -161.02912415 217.74565735 -160.67788696 216.92642212 C-159.59205282 214.40240852 -158.48441024 211.88872701 -157.375 209.375 C-156.65340844 207.71290709 -155.93334421 206.05015023 -155.21484375 204.38671875 C-154.86193268 203.5706012 -154.50902161 202.75448364 -154.14541626 201.91363525 C-153.4423648 200.28606819 -152.73986521 198.65826263 -152.03793335 197.0302124 C-151.69718781 196.24003723 -151.35644226 195.44986206 -151.00537109 194.63574219 C-150.6718866 193.86161987 -150.3384021 193.08749756 -149.99481201 192.28991699 C-149.02629766 190.06053351 -148.03645324 187.84150794 -147.04541016 185.62207031 C-146.4667102 184.28235982 -145.88901355 182.94221532 -145.3125 181.6015625 C-144.80074219 180.44221191 -144.28898437 179.28286133 -143.76171875 178.08837891 C-142.69595058 175.01853535 -142.69595058 175.01853535 -144.03710938 172.23510742 C-145.62674377 169.91304331 -145.62674377 169.91304331 -147.71875 167.63671875 C-150.38063634 164.56005218 -152.23211134 161.39572908 -154.125 157.8125 C-154.46112305 157.17658936 -154.79724609 156.54067871 -155.14355469 155.88549805 C-162.54799575 141.41927981 -165.39703108 126.38727809 -165.3125 110.1875 C-165.30686035 109.04676025 -165.3012207 107.90602051 -165.29541016 106.73071289 C-165.17174675 98.12018878 -164.44781978 90.29847994 -162 82 C-161.80664062 81.33242676 -161.61328125 80.66485352 -161.4140625 79.97705078 C-156.43390585 63.21897735 -147.79485277 49.77634088 -136 37 C-135.175 36.10410156 -134.35 35.20820312 -133.5 34.28515625 C-100.33728917 -0.20618882 -45.77100873 -13.36513455 0 0 Z " fill="#ffa04cff" transform="translate(165,4)"/>
<path d="M0 0 C5.30297167 1.06645131 10.50043071 2.55842093 15.69580078 4.05273438 C18.12238871 4.74925047 20.55448776 5.42289981 22.98828125 6.09375 C24.55766846 6.53512075 26.12669235 6.97778585 27.6953125 7.421875 C28.41010773 7.61996765 29.12490295 7.8180603 29.86135864 8.02215576 C31.93222034 8.62398298 33.96504757 9.28645859 36 10 C36.61634308 10.21118469 37.23268616 10.42236938 37.8677063 10.63995361 C45.29005127 13.73959444 50.61826967 20.08131566 56.1640625 25.703125 C57.3257957 26.86724728 58.48827458 28.03062585 59.65145874 29.19329834 C62.07988911 31.62484514 64.50149222 34.06292182 66.91796875 36.50634766 C69.99862958 39.62094789 73.09225224 42.72225988 76.19068336 45.81917191 C78.59006427 48.21909967 80.98417468 50.62422816 83.37659836 53.03108978 C84.51478908 54.17559583 85.65415184 55.31893766 86.79475784 56.46103668 C105.96126563 75.68014335 105.96126563 75.68014335 106.4375 89.875 C106.1842891 99.0003313 104.07604262 105.12519254 97.875 111.875 C90.18277303 118.94184267 82.73310429 120.77541223 72.37109375 120.3515625 C63.7715479 119.45473848 58.85017354 116.16737721 52.6328125 110.24609375 C51.99506393 109.64420731 51.35731537 109.04232086 50.70024109 108.42219543 C42.14625463 100.3030396 33.73915688 92.03014664 25.37501812 83.71606064 C22.82539108 81.18169326 20.27090857 78.65271498 17.70385742 76.13598633 C15.17251262 73.65416851 12.6538653 71.16009896 10.14362144 68.65694618 C8.74704595 67.27020177 7.33838028 65.89566658 5.92939758 64.52153015 C0.8092261 59.38423546 -2.6968911 54.89804349 -5 48 C-5.35036568 47.01805916 -5.35036568 47.01805916 -5.70780945 46.01628113 C-6.3712809 44.09408393 -6.98295606 42.16310973 -7.578125 40.21875 C-7.79442566 39.52036011 -8.01072632 38.82197021 -8.23358154 38.10241699 C-8.68350618 36.64131522 -9.1303672 35.17926668 -9.57421875 33.71630859 C-10.24982743 31.50056597 -10.94480706 29.2914982 -11.640625 27.08203125 C-16.80351875 10.36662502 -16.80351875 10.36662502 -14.23193359 4.14038086 C-10.62707761 -1.40524562 -5.84325936 -0.68421521 0 0 Z M11 26 C11.42971132 27.85598719 11.86919505 29.70971264 12.3125 31.5625 C12.55613281 32.59503906 12.79976562 33.62757813 13.05078125 34.69140625 C15.4264181 42.97191822 18.8165853 47.37600026 24.94921875 53.33984375 C25.72183548 54.10680069 26.49445221 54.87375763 27.29048157 55.66395569 C29.74688268 58.09806581 32.21685831 60.51785393 34.6875 62.9375 C36.36094325 64.59086905 38.03347974 66.2451564 39.70507812 67.90039062 C43.79294509 71.94428673 47.8920313 75.97653119 52 80 C55.85027991 78.21799313 58.2799142 75.92324595 61.25 72.875 C62.14203125 71.96492188 63.0340625 71.05484375 63.953125 70.1171875 C64.62859375 69.41851562 65.3040625 68.71984375 66 68 C64.65229197 65.02139602 63.13879791 62.85377379 60.88989258 60.48828125 C60.25775345 59.82078857 59.62561432 59.1532959 58.97431946 58.46557617 C56.04242024 55.43036215 53.10375062 52.40236511 50.14672852 49.39160156 C48.60188721 47.80878958 47.06874497 46.21446638 45.5480957 44.60839844 C36.28148839 34.82602635 28.90989031 27.26666416 15 26 C13.68 26 12.36 26 11 26 Z M77.1796875 84.625 C76.07303114 85.74498957 74.9716808 86.87024066 73.875 88 C73.03001953 88.85851562 73.03001953 88.85851562 72.16796875 89.734375 C70.77413732 91.15183069 69.38648364 92.57535626 68 94 C68.75150023 97.27773504 68.75150023 97.27773504 72 99 C76.86581934 99.5493667 78.8976444 99.73490373 83 97 C85.75777063 92.86334406 85.62388198 90.91307062 85 86 C83.79679557 83.49958728 83.79679557 83.49958728 82 82 C79.60185063 81.77289795 79.60185063 81.77289795 77.1796875 84.625 Z " fill="#fec447ff" transform="translate(150,136)"/>
<path d="M0 0 C4.07539683 1.27855587 6.20746235 4.01683226 8.19140625 7.6875 C9.02941834 11.03954838 8.77980118 12.59885919 7.1484375 15.6171875 C5.1082496 18.4631639 3.38982224 20.31152636 0 21.375 C-3.51194895 21.66023443 -5.82273667 21.39715582 -8.71875 19.3125 C-11.30575839 16.57259513 -12.64154908 14.35567867 -13.55859375 10.6875 C-11.79268986 3.62388445 -7.4709941 -0.60678125 0 0 Z " fill="#f5841bff" transform="translate(174.80859375,100.3125)"/>
<path d="M0 0 C4.07539683 1.27855587 6.20746235 4.01683226 8.19140625 7.6875 C9.02941834 11.03954838 8.77980118 12.59885919 7.1484375 15.6171875 C5.1082496 18.4631639 3.38982224 20.31152636 0 21.375 C-3.51194895 21.66023443 -5.82273667 21.39715582 -8.71875 19.3125 C-11.30575839 16.57259513 -12.64154908 14.35567867 -13.55859375 10.6875 C-11.79268986 3.62388445 -7.4709941 -0.60678125 0 0 Z " fill="#dd9f34ff" transform="translate(129.80859375,100.3125)"/>
<path d="M0 0 C4.07539683 1.27855587 6.20746235 4.01683226 8.19140625 7.6875 C9.02941834 11.03954838 8.77980118 12.59885919 7.1484375 15.6171875 C5.1082496 18.4631639 3.38982224 20.31152636 0 21.375 C-3.51194895 21.66023443 -5.82273667 21.39715582 -8.71875 19.3125 C-11.30575839 16.57259513 -12.64154908 14.35567867 -13.55859375 10.6875 C-11.79268986 3.62388445 -7.4709941 -0.60678125 0 0 Z " fill="#fea426ff" transform="translate(84.80859375,100.3125)"/>
<path d="M0 0 C0.33 0 0.66 0 1 0 C1 18.48 1 36.96 1 56 C-4.12307351 48.31538973 -3.35522498 37.131707 -3.3125 28.1875 C-3.31121094 27.05908691 -3.30992188 25.93067383 -3.30859375 24.76806641 C-3.21021203 16.19287005 -2.29222596 8.2683865 0 0 Z " fill="#ff9b44ff" transform="translate(3,86)"/>
<path d="M0 0 C0.33 0 0.66 0 1 0 C1 6.27 1 12.54 1 19 C-3 16 -3 16 -3.49609375 13.984375 C-3.35503835 8.60546253 -2.45245825 4.80273074 0 0 Z " fill="#ff811aff" transform="translate(3,225)"/>
</svg>
